# xmcd
# Copyright (C) 1995-1998 Ti Kan
#
# Track frame offsets:
#       150
#       19232
#       36846
#       52611
#       70692
#       91646
#       107664
#       124966
#       140779
#       147508
#       170688
#       202805
#
# Disc length: 2902 seconds
#
# Revision: 0
# Processed by: cddbd v1.5.2PL0 Copyright (c) Steve Scherf et al.
# Submitted via: CD-Import v1.0
#
DISCID=a40b540c
DTITLE=C. Gibbs and Lucinda Black Bear - Capo My Heart
DYEAR=2007
DGENRE=
TTITLE0=Kites
TTITLE1=Fought The Bear
TTITLE2=All She Wanted
TTITLE3=Capo My Heart
TTITLE4=Winterland
TTITLE5=Noon Day Sun
TTITLE6=You Got It Blue
TTITLE7=Give U Nothin
TTITLE8=Waking Song
TTITLE9=Here I Am
TTITLE10=Hibernation Song (Blue It Got You)
TTITLE11=Data Track
EXTD=
EXTT0=
EXTT1=
EXTT2=
EXTT3=
EXTT4=
EXTT5=
EXTT6=
EXTT7=
EXTT8=
EXTT9=
EXTT10=
EXTT11=
PLAYORDER=
